<svg id="Layer_1" data-name="Layer 1" xmlns="http://www.w3.org/2000/svg" viewBox="0 0 386.75 385.42"><defs><style>.cls-1{fill:#696969;}.cls-2{fill:#fff;}.cls-3{fill:#f4f2f2;}.cls-4{fill:#0d0a0b;}.cls-5{fill:#0e0c0d;}.cls-6{fill:#101010;}.cls-7{fill:#111;}.cls-8{fill:#9c989b;}.cls-9{fill:#a61e30;}.cls-10{fill:#a71e31;}</style></defs><g id="Gear"><ellipse class="cls-1" cx="193.82" cy="191.71" rx="157.53" ry="154.24"/><polygon class="cls-1" points="283.93 65.26 320.39 45.02 335.98 59.88 315.56 95.34 312.92 100.17 280.19 69.91 278.55 68 283.93 65.26"/><polygon class="cls-1" points="214.34 37.8 237.11 2.86 257.84 8.71 256.37 49.6 256.29 55.11 213.21 43.66 210.87 42.73 214.34 37.8"/><polygon class="cls-1" points="140.04 46.05 143.85 4.52 164.9 0 182.71 36.84 185.22 41.74 141.78 51.75 139.28 52.03 140.04 46.05"/><polygon class="cls-1" points="78.17 88.09 62.12 49.61 78.62 35.77 111.59 60 116.09 63.17 82.38 92.33 80.29 93.74 78.17 88.09"/><polygon class="cls-1" points="43.66 152.2 11.82 125.26 20.2 105.42 60.59 111.97 66.05 112.73 49.33 154.05 48.12 156.26 43.66 152.2"/><polygon class="cls-1" points="42.61 227 1.87 218.07 0 196.62 38.76 183.51 43.94 181.64 48.48 225.98 48.45 228.5 42.61 227"/><polygon class="cls-1" points="76.62 293.57 36.44 304.71 24.76 286.62 52.91 256.92 56.6 252.84 81.34 289.92 82.49 292.17 76.62 293.57"/><polygon class="cls-1" points="137.85 336.55 107.54 365.19 88.75 354.65 99.75 315.24 101.11 309.9 140.32 331.12 142.38 332.56 137.85 336.55"/><polygon class="cls-1" points="211.3 346 197.71 385.42 176.18 384.78 167.67 344.76 166.41 339.4 210.97 340.04 213.47 340.37 211.3 346"/><polygon class="cls-1" points="281.41 319.91 287.83 361.12 268.5 370.62 242.27 339.23 238.64 335.08 278.34 314.8 280.7 313.92 281.41 319.91"/><polygon class="cls-1" points="331.17 264.12 356.1 297.55 343.45 314.99 305.58 299.49 300.44 297.51 326.06 261.04 327.74 259.16 331.17 264.12"/><polygon class="cls-1" points="349.09 191.49 386.75 209.39 383.73 230.71 343.01 234.72 337.54 235.38 343.13 191.15 343.74 188.71 349.09 191.49"/><polygon class="cls-1" points="333.48 121.57 376.06 120.56 381.86 141.73 352.05 161.07 347.84 164.62 328.31 124.55 327.47 122.17 333.48 121.57"/><circle class="cls-2" cx="194.88" cy="192.77" r="112.39"/></g><g id="Bronco_white" data-name="Bronco white"><polygon class="cls-3" points="341.28 276.9 316.21 246.82 319.02 244.37 342.92 275.45 341.28 276.9"/><path class="cls-3" d="M347.82,275.56a8.69,8.69,0,0,1,2.49,2.49,14.11,14.11,0,0,1,1.65,2.34,8.55,8.55,0,0,1,1,2.76,10.14,10.14,0,0,1-.14,3.25,6.91,6.91,0,0,1-.9,3.1,3.93,3.93,0,0,1-1,1.11,5.54,5.54,0,0,1-2.55.83,6.41,6.41,0,0,1-2,.13,5.81,5.81,0,0,1-2.2-.82,13.65,13.65,0,0,1-1.87-1.52c-1.61-1.35-1.72-1.15-2.21-1.73-.79-.94-.91-2-1.1-3.52-.24-2-.43-3.09.14-4.34a11.07,11.07,0,0,1,2.22-2.7,7.33,7.33,0,0,1,1.64-1.45,5.22,5.22,0,0,1,3.32-.48A5.36,5.36,0,0,1,347.82,275.56Z"/><path class="cls-3" d="M319,244.37c.1-.52-.07-.5-1.09-3.93a13.5,13.5,0,0,0-.9-2.76,9.24,9.24,0,0,0-2.57-2.82,10.37,10.37,0,0,0-2.43-1.61,5.12,5.12,0,0,0-3.53-.64,6.06,6.06,0,0,0-1.86,1.22,9.2,9.2,0,0,0-1.92,1.92,8.44,8.44,0,0,0-1.22,2.57,8.68,8.68,0,0,0,.51,6.86,6.94,6.94,0,0,0,2.18,2.95,6.64,6.64,0,0,0,2.57,1,8.34,8.34,0,0,0,3.72.06,8.73,8.73,0,0,0,2.5-1C316.78,247.19,318.7,246.11,319,244.37Z"/><path class="cls-3" d="M301.22,238.31l2.6-4.62-7.22-5.59-6.54-6.54-3.47-8.28-3-7.51-1.72-5.21L278.51,194l-3-5.29-4.23-5.2-3.66-4-4.14-3.47-5.3-3.56-6.64-3.18-6.55-3-7.22-2.7-7.6-2-6.2-2.05-6-1.83-7.7-1.9-8.37-2.14-6.65-1.35L188.42,151l-7-2.12-4.14-2.4-3.18-1.83-2.26,5.92-2.31,5.1-2.31,4.05-3.95,4.81-5.39,5.2-4.23,3L156,180l.19,8.47,4.82,4.55-1.16,3.5-3.08,5.58-1.64-.24-1.31-.72a4.38,4.38,0,0,0-2.24-.52l-2.18.11-3-.75-3.67-.71-4.23-.83-.38-1.83h16.85l-.25-2.31-11.79-.48-7.7-.1-7-.09h-7l-1.45-.39-1.54-.69-1.63-1.09-2.43.69-1.29,1.37-1.56,4.24v3.56l2.11,3.75,3.28,1.45,3.56-.19,3.08.48,3.56,2,5.49,1.92,4.52,1.83,6,1.83,5,2.41,5.2,1.06,2,1,2.69-1.44,1.16-4.53.58-1.87,1.63-.53,2-6.94,2.21-5.39,3.47-2.21.38,1.54L166.9,200l-1.16,4.05-.86,3.85,1.15,4.91,2.6,5.58,3.18,3.75,4.43,2.31,3.56,1,3.37-1.06,4.24-1.83,1.92-2.12,2.12-5.49.19-8.66L190,203.14l-2.21-3.27-2.5-2.79-4-1.06-4.11-1.46-.38-2,1.92-1.62-.28-5.77-1.06-6.07-.39-5.2,2.22.58,10.68,23.39,3.56,3.95,9-8.09,20.89,1.74h11.93l2.7-1.25,3.27-6.45,1.16.29.77,8.08,8.47,9.92,7,9.62,13.66,6.88L288.84,231l1.13,1.72.17,1.6.2,1.16,3.27,1,2.41.87,3.37,1.35Z"/><polygon class="cls-3" points="363.6 218.95 352.52 214.59 343.05 210.72 334.02 204.44 326.98 199.26 322.77 195.71 315.49 190.43 308.53 186.53 299.65 184.08 290.76 182.59 276.1 183.16 273.81 180.02 283.13 179.56 287.85 179.56 295.82 179.56 303.83 180.79 312.69 183.59 320.3 188.18 326.12 191.71 332.38 196.46 339.66 201.72 349.6 208.29 352.93 210.17 356.87 212.32 361.81 214.59 366.06 215.48 367.18 215.71 366.06 218.06 363.6 218.95"/><polygon class="cls-3" points="152.63 248.66 148.59 247.47 147.07 246.54 146.48 249.51 145.15 251.7 144.23 252.89 142.24 253.68 139.8 253.28 138.14 252.16 136.43 250.64 135.23 248.72 135.23 246.94 134.77 244.56 134.77 242.9 135.76 241.38 137.28 239.73 138.54 238.27 140.26 238.27 142.44 238.79 143.7 238.79 145.15 240.19 145.68 241.98 146.74 242.57 148.26 242.57 149.25 242.57 150.25 242.57 151.24 242.84 151.7 243.43 152.63 243.96 153.09 245.41 153.42 247.99 152.63 248.66"/><path class="cls-3" d="M133.51,241.5h.67a1.5,1.5,0,0,0,1.25-.67l1.7-2.56v-.58a4,4,0,0,0-.57-2l-1.85-3a12.4,12.4,0,0,1-.62-1.13L130,223.07,128,219.21l-2.77-3.8-1.73-3.49a3.62,3.62,0,0,1-.35-2.17l.3-2.15-.09-.77-3.08-.48L119,208.29l-3,.26a.49.49,0,0,0-.45.53l0,.12.07.22a10.8,10.8,0,0,0,1.7,3.15l1,1.3,2.21,3.54,1,2.34,3.11,5.34,2.67,5.4,2.84,4.59,2,3.71.4,2.47Z"/><path class="cls-3" d="M109.81,197.56l1.13-1.82a2.45,2.45,0,0,0,.13-2.29h0l-3.81.33-2.81,1.73a1.22,1.22,0,0,0-.39.58v1.47Z"/><polygon class="cls-3" points="362.49 229.46 357.75 228.18 351.68 225.82 346.36 222.37 340.35 218.2 337.19 215 337.19 214.07 346.41 219.48 353.28 222.75 360.83 225.97 364.87 226.55 364.87 228.05 362.49 229.46"/><polygon class="cls-3" points="64.78 105.36 67.54 103.81 73.8 101.21 77.76 99.06 80.25 97.4 81.29 96.27 79.75 96.27 76.59 96.96 73.49 98.79 71.2 99.71 69.32 100.37 65.92 101.89 64.04 103.57 61.75 104.74 61.75 107.53 61.77 108.8 48.15 115.89 40.85 120.36 32.02 126.79 22.43 136.38 13.93 145.09 13.93 147.49 19.16 147.49 19.38 144.66 22.43 143.35 22.86 144.55 21.99 146.19 21.88 149.78 24.28 152.29 26.9 152.51 30.27 150.22 29.95 146.29 33.44 142.59 41.17 136.59 46.3 132.67 47.93 130.82 49.78 131.04 51.09 132.56 48.69 135.12 47.28 138.23 52.83 135.72 53.6 133.43 55.56 135.12 58.61 136.49 61.01 137.68 63.08 137.68 67.1 137.05 71.36 135.72 78.77 134.09 83.02 128.86 85.31 122.43 86.95 125.04 88.36 126.89 92.29 128.09 95.43 129.57 97.08 130.49 96.41 134.6 96.64 136.7 100.13 130.49 102.53 123.63 104.06 117.19 104.82 113.71 105.25 110.55 109.64 111.43 113.32 112.62 117.68 113.6 119.86 114.8 118.11 122.32 112.67 121.45 106.19 120.08 105.36 123.08 103.95 129.07 104.27 131.25 109.29 133.65 110.81 135.12 109.29 139.1 110.7 140.3 114.84 133.43 117.13 129.29 118.33 125.48 119.23 127.2 119.7 128.25 118.96 129.88 118.15 132.03 117.53 133.6 117.04 134.85 117.01 136.64 117.43 137.56 118.38 138.51 119.91 138.62 120.41 139.41 121.62 140.44 123.04 141.12 124.87 142.69 120.82 148.69 123.04 147.91 127.35 143.21 131.26 137.99 131 140.34 128.78 145.56 134.52 151.04 135.18 153.12 129.83 159.26 129.83 160.43 135.7 156.78 139.61 153.25 141.05 153.91 138.18 157.04 143 163.3 146.14 168.39 147.83 169.56 147.83 171.26 145.47 173.97 150.16 172.12 154.95 167.76 162.47 159.15 162.47 157.41 157.57 152.94 150.7 147.17 148.74 145.2 147.21 143.9 149.18 142.91 150.48 138.23 151.68 136.49 156.8 140.3 162.47 144.64 166.28 147.6 167.81 149.13 169.77 146.73 170.65 143.13 165.96 140.52 160.18 136.49 153.21 131.69 145.47 125.59 137.51 120.03 134.03 116.76 127.6 113.93 121.17 110.98 115.94 108.48 105.8 106.08 103.51 104.34 94.03 104.34 86.84 105.42 83.24 105.53 79.27 107.32 75.57 109.63 70.33 111.25 66.71 111.85 64.82 109.59 64.37 106.98 64.78 105.36"/><polygon class="cls-3" points="356.14 241.87 351.03 240.12 347.67 237.81 344.03 235.46 339.05 231.94 335.35 228.09 333.07 225.78 331.04 223.25 335.38 225.85 338.37 228.45 341.08 230.72 343.93 232.56 348.48 235.49 351.8 236.79 357 238.79 360.04 239.97 356.69 242.09 356.14 241.87"/><polyline class="cls-3" points="135.07 113.12 141.25 113.12 151.92 115.39 160.6 117.61 167.6 119.17 176.83 121.24 184.39 123.01 184.99 121.54 166.94 116.64 158.02 114.61 148.83 112.27 137.55 109.76 130.09 109.34 127.59 109.75 135.07 113.12 141.25 113.12"/><polyline class="cls-3" points="153.68 126.29 161.4 127.53 170.65 129.91 176.62 131.69 180.1 132.73 183 133.62 189.84 135.75 192.32 136.92 193.2 135.99 193.4 134.06 186.74 132.09 181.33 130.5 175.32 128.95 170.65 127.75 165.78 126.56 160.07 125.17 155.94 124.17 153.07 123.48 148.42 122.44 153.68 126.29"/><polyline class="cls-3" points="135.07 113.12 141.25 113.12 154.19 115.97 161.9 117.91 165.77 118.76 171.34 120 178.95 121.77 184.39 123.01 184.99 121.54 177.48 119.54 166.94 116.64 137.55 109.76 130.09 109.34 127.59 109.75 135.07 113.12"/><polyline class="cls-3" points="110.16 102.7 118.13 100.68 136.91 100.68 145.5 102.7 151.83 103.71 158.78 105.28 160.21 105.61 166.99 107.93 167 106.24 159.24 104 147.87 100.52 142.07 99.62 137.92 98.78 131.47 97.46 118.99 97.97 112.16 99.24 105.82 101.18 110.16 102.7"/><polyline class="cls-3" points="85.24 101.54 88.97 98.52 100.59 93.1 114.75 90.98 131.88 91.2 131.98 89.67 118.89 89.22 111.52 89.75 106.11 90.61 100.59 91.14 94.03 93.36 83.81 98.21 82.56 99.84 82.05 101.57 85.24 101.54"/><polyline class="cls-3" points="76.82 94.93 80.55 92.2 90.18 88.27 98.21 85.42 97.78 84.09 90.73 86.3 82.94 89.42 76.02 92.61 72.87 96.85 74.27 96.27 76.82 94.93"/><polyline class="cls-3" points="63.88 100.65 65.75 96.65 70.61 90.23 72.32 88.98 70.75 87.38 67.3 91.09 62.77 96.98 60.34 102.15 63.88 100.65"/><polyline class="cls-3" points="54.07 101.3 58.91 93.47 57.3 93.16 51.74 101.43 50.02 105.99 49.92 111.65 51.63 110.63 52.15 106.66 54.07 101.3"/></g><g id="Bronco_black" data-name="Bronco black"><path class="cls-4" d="M185.82,196.35l-.5.66,4.71,6.06,1.64,3.18-.19,8.66-2.12,5.49-1.92,2.16-4.24,1.83-3.37,1.06-3.56-1-4.43-2.31-3.18-3.75-2.6-5.58-1.15-4.91,2-7.9,2.31-2.5-.38-1.54-3.47,2.21-2.19,5.39-.82,2.81a11.18,11.18,0,0,0,.65,8l.07.14,2.14,5.45,5.31,5.82,7.16,2.51-1.73.57-6.33-.86-5.06-2.26-4.28-4.66-5.2-2.22-2-1-5.2-1.06-5-2.41-6-1.83-4.52-1.83-5.49-1.92-3.56-2-.21,2.92.35,2.17,1.73,3.49,2.77,3.8L130,223l4.07,8.49.62,1.13,1.85,3,.57,2.62h1.41l3.9.52h1.26l1.45,1.4.53,1.79,1.06.59h2.51l2,.27,1.39,1.12.47,1.45.33,2.58-.53,5.06-2.12.63-2.73-2-1.59-2.11-1.32,2.19-2.91,2-2.45-.4-3.37-2.64-1.19-1.92-1.18-.52-3.81,1.56-2.31.13.61,2.75,3.16,3.48,6.21.9,6.18.52,3.68,2.38,3.32,3.06,7,1.93,4.12,2,7,1.2,5.82-.26,1.26-3.58-.33-7.85-2.39-8.24-3.6-5.94-3-2.55-4.4-3.21L156.92,235l-6.21,2.31h-2.66l-2.27-3.26-2.24-3-1.87-2.29-.51-1.57a1.75,1.75,0,0,1,1-2.16l.61-.26a1.27,1.27,0,0,1,.94,0l5.1,1.91,7.4,1.54,5.4,2,4.92,1.28,4.43,1.58,7.12,1.43,6.54,1.17,8.67-.08,2.93-1.84,3.64,2.8,3.75,5.15,5.33,5.71,8.17,6.79,4.82,2.7,6.5,1.88,6.23.63,8.92-.31,7.59.67h.71l2.86-.08a1.62,1.62,0,0,1,1.11.4l2.48,2.12,5,4.23,5.05,4.62,1.41,2.14,5.46,3.44a5.07,5.07,0,0,1,1.68,1.51l3.51,6.17,4.74,3.47,7.4-.29,6.42.93,6,.35,5.93,2.93,2.67,1.49A1.11,1.11,0,0,0,315,293l1.7-1.9a2,2,0,0,0,.52-1.43l-.24-5.85a4.05,4.05,0,0,0-.62-2l-2.51-4.07L310.64,274a2.54,2.54,0,0,0-.93-.69l-4.44-2a3.65,3.65,0,0,0-1.49-.31h-4.51a3.88,3.88,0,0,0-2.42.85l-2.54,2a1.73,1.73,0,0,1-1.8.23l-.88-.39c-.4-.28-.88-1.52-1.15-1.78v-3.35a2.08,2.08,0,0,0-.71-1.56l-4.83-4.28-11.4-10.61-9.89-7-8-3.32L249,238l-4-6.49v-3.71l4.71,1.68,13.44,12.89,10,4.79,21.6,1.2,9.13,2.92,9.48,9.38,11.91,14.25,5.18,5.86,6.67-3-3.78-4.84-10-12.22L315,248.19l-2.5,1-3.72-.06-4.75-4-1-3.33-6.4-.9-9.21-2.16-8.6-2.23-3.22-.82L275,229.8l-4.08-3-6.81-2.53-5.92-2.55-5-5.88-4.06-8.65-5.47-8.45L242,186.59l-1,1.14-3.27,6.45-2.7,1.25-3.74,7.13-1.18,14.83-2.17.49-4.56-1.57-6.16.11v-2.18l8.34-6-1-1.34-10.69,1.57-9.74,1.34-5.4-1.42-5.35-6.58-3.56-3.95-1.63-1.22-1.15-.9-1-.42Z"/><polygon class="cls-5" points="139.61 153.25 135.7 156.78 129.83 160.43 121.76 164.64 115.34 166.98 113 167.5 111.66 160.97 125.18 149.41 128.78 145.56 131 140.34 131.26 137.99 127.35 143.21 123.04 147.91 118.48 151.93 112.11 156.26 109.83 157.85 106.88 155.12 104.83 152.39 108.24 148.18 113.36 142.49 115.64 137.99 120.51 140.6 121.62 140.44 119.8 139.45 118.38 138.51 117.43 137.56 117.01 136.64 117.04 134.85 118.15 132.03 118.96 129.88 119.7 128.25 119.23 127.2 118.33 125.48 117.13 129.29 114.84 133.43 110.7 140.3 107.39 144.64 103.85 148.37 102.64 149.23 99.97 147.33 97.08 143.88 98.59 140.17 102.26 134.21 102.73 133.31 104.28 134.77 110.81 135.12 109.29 133.65 104.27 131.25 103.95 129.07 104.8 125.48 106.19 120.08 104.45 115.39 104.06 117.19 102.53 123.63 100.13 130.49 96.64 136.7 93.97 142.64 87.7 138.3 88.47 132.42 97.08 130.49 95.43 129.57 92.29 128.09 88.36 126.89 85.31 122.43 84.99 131.49 80.89 140.55 77.17 143.41 65.25 145.19 58.2 143.72 53.48 137.3 51.78 141.87 39 145.74 38 143.72 47.28 138.23 44.42 135.12 35.83 143.49 30.27 150.22 26.9 152.51 24.28 152.29 21.88 149.78 21.99 146.19 22.86 144.55 22.43 143.35 19.38 144.66 19.16 147.49 13.93 147.49 12.85 144.67 8.46 145.84 6.79 146.6 6.79 150.37 8.3 153.22 10.29 155.77 11.96 160.1 16.89 160.62 17.8 163.15 17.04 163.8 15.96 165.1 16.36 170.74 20.45 171.9 22.37 172.6 28.07 172.79 36.41 166.94 38.57 166.82 39.93 165.46 39.83 159.65 51.87 152.74 55.74 151.57 60.48 153.41 70.24 152.56 78.41 151.24 84.5 157.66 88.2 164.46 88.25 171.78 86.85 176.93 86.71 184.14 85.31 187.89 73.61 188.44 60.35 188.57 54.18 187.77 48.28 189.13 44.68 194.75 44.51 200.52 48.01 206.35 54.6 210.33 61.83 217.59 73.05 229.34 79.55 235.81 81.55 242.95 84.73 245.98 91.42 246.81 96.53 246.76 100.99 250.76 106.15 252.51 112.64 254.71 117.48 255.72 120.87 252.84 120.7 247.58 119.74 243.18 117.33 238.27 113.32 232.72 109.03 229.56 103.19 229.93 100.54 231.26 94.75 225.71 88.67 225.77 82.2 217.93 77.11 211.22 75.55 208.27 76.97 207.89 82.36 211.19 94.14 217.35 100.78 220.53 105.22 221.36 111.3 221.5 116.9 228.34 121 235.34 125.02 241.5 127.11 244.94 130.57 241.9 123.11 231.9 116.05 220.96 108.36 210.03 112.42 209.43 117.1 216.61 121.2 224.51 127.24 234.01 131.16 241.31 133.82 244.1 134.05 248.2 135.23 248.72 135.23 246.94 134.77 244.56 134.77 242.9 135.76 241.38 137.28 239.73 138.54 238.27 137.14 238.27 135.44 240.83 134.18 241.5 132.64 241.26 132.25 238.79 130.21 235.08 127.38 230.49 124.7 225.09 121.6 219.75 120.58 217.41 118.37 213.87 115.59 209.2 116.02 208.55 118.97 208.29 120.24 206.35 116.68 206.54 113.41 205.09 111.29 201.34 111.29 197.78 112.86 193.54 114.06 192.16 116.49 191.47 121.11 193.64 128.14 193.64 135.16 193.74 142.87 193.83 154.66 194.31 154.9 196.62 153.45 196.62 142.2 196.62 138.05 196.62 138.44 198.45 142.67 199.28 149.36 200.74 155.09 201.87 156.73 202.11 157.11 201.42 159.81 196.53 160.96 193.06 156.15 188.44 153.54 184.03 152.04 183.21 153.46 190.76 144.57 181.57 139.87 176.27 126.35 176.64 120.67 171.63 115.14 171.63 120.74 168.59 125.69 166.43 131.12 163.02 135.91 159.42 138.18 157.04 141.05 153.91 139.61 153.25"/><path class="cls-5" d="M331.07,287.65"/><path class="cls-6" d="M331.07,289.29l1.07,2,3,2.93,3.59.37h4.59l2.81-1,3.19.78,3.44,1.35,3.41-.23,1.3,1,8.77.23,3.29-1.26L371.1,293v-4l-2.53-5.4-2.41-4.94-5.82-6.35-5.9-3.14h-4.39l-4.68,1.72-3.18-4-2.64-4.29L335.72,258l-3.9-4.74-4.18-5.48-3.52-4.63-2.79-6.47-4.58-4.84-7.43-2.46-4.19.06-3.94-3-4.86-4.79-3.72-6.13-3.06-8.23-3.29-7.46-.88-3.26h-5.52l2,3.92,8.19,21,7.88,8.4,5.88,3.73,2.17.7,2.15-1.13,2.4-.16,2.36.82,3.3,3.09.83.67,2,6.69,24,31.11,1.79-.51,2.56.25.55.33,2.49,2.49,1.65,2.34.58,1.46.39,1.3v2.32l-.75,3.49-1.37,1.64-1.41.6-1.14.23-1.14.13H346l-.83-.25-1-.53-1.08-.85-.73-.65-1.5-1.15-.77-.6L339,284.56l-1.54,2.36-3,1.19-3.36-.5Z"/><path class="cls-6" d="M350,282.8c0,1-1.31,3.37-3.22,3.37a3.53,3.53,0,0,1-3.29-3.69c0-1.91,1.14-3.52,3-3.52A3.81,3.81,0,0,1,350,282.8Z"/><ellipse class="cls-6" cx="310.83" cy="240.94" rx="3.18" ry="3.58"/><ellipse class="cls-6" cx="178.93" cy="208.86" rx="5.56" ry="6.09"/><circle class="cls-6" cx="141.33" cy="245.82" r="2.96"/><ellipse class="cls-6" cx="117.73" cy="199.44" rx="3.55" ry="3.66"/><polygon class="cls-6" points="330.82 284.03 330.39 280.75 337.06 277.75 339.06 279.6 338.97 284.6 337.44 286.96 334.43 288.15 331.07 287.65 330.82 284.03"/><polygon class="cls-4" points="277.23 177.31 288.64 176.3 299.39 176.66 306.02 177.31 311.85 179.56 317.18 181.88 320.86 184.16 328.97 188.47 335.69 193.67 342.29 199.26 348.63 203.31 359.16 208.38 364.36 211.05 371.84 213.33 375.76 215.05 372.86 217.77 366.13 223.35 372.37 225.39 367.18 230.58 362.58 235.14 360.85 236.54 368.16 238.57 366.47 240.04 361.95 243.51 357.13 247.32 353.2 250.24 351.55 251.63 348.63 251.12 346.6 250.24 340.26 246.71 335.19 244.37 329.56 240.95 322.89 233.5 318.07 228.42 314.9 223.09 311.04 217.77 308.3 212.57 305.76 208.89 301.71 204.58 297.39 202.17 292.19 199.89 287.63 197.35 285.38 196.65 282.33 192.56 288.9 193.67 297.01 196.65 303.03 201.15 307.64 205.97 310.83 210.29 314.01 215.49 319.05 221.77 323.39 229.46 327.96 234.13 333.67 238.79 338.49 241.61 344.7 245.04 349.39 246.71 360.04 239.97 357 238.79 351.8 236.79 358.4 232.49 362.49 229.46 364.87 226.55 360.83 225.97 357.46 224.53 363.6 218.95 366.06 215.48 361.81 214.59 356.87 212.32 352.93 210.17 349.6 208.29 344.07 205.09 339.66 201.72 332.38 196.46 326.12 191.71 312.69 183.59 303.83 180.79 295.82 179.56 287.85 179.56 283.13 179.56 273.81 180.02 276.1 183.16 274.02 180.28 271.28 176.91 277.23 177.31"/><polygon class="cls-7" points="81 94.75 83.1 95.12 84.02 96.27 83.81 98.21 82.56 99.84 82.05 101.57 85.24 101.54 89.15 100.8 96.58 100.72 104.52 100.72 118.27 105.54 135.07 113.12 146.5 120.98 151.94 125.13 163.88 133.07 176.24 141 188.68 146.94 203.48 150.22 216.42 153.58 227.07 156.37 241.23 160.66 252.54 165.4 262.81 170.27 270.32 175.75 275.69 182.32 279.4 187.18 282.33 192.56 285.38 196.65 279.86 196.65 278.9 194.79 276.88 191.14 271.29 183.53 263.49 176.02 258.19 172.46 251.55 169.28 245.01 166.3 237.79 163.6 230.18 161.58 217.96 157.73 210.25 155.84 201.88 153.69 188.4 150.99 181.37 148.87 177.23 146.47 174.06 144.64 171.84 150.51 169.53 155.61 167.22 159.66 163.27 164.47 157.88 169.67 153.65 172.65 150.16 172.12 154.95 167.76 162.47 159.15 164.97 155.58 167.08 152.45 169.05 148.81 169.77 146.73 170.65 143.13 160.18 136.49 153.21 131.69 145.47 125.59 137.51 120.03 134.03 116.76 115.94 108.48 107.53 105.58 103.51 104.34 94.03 104.34 88.55 104.29 84.33 104.53 81.57 103.31 80.67 102.24 80.39 101.17 80.92 99.47 82.31 97.35 81.29 96.27 79.75 96.27 76.59 96.96 73.49 98.79 69.32 100.37 65.92 101.89 64.04 103.57 61.75 104.74 61.77 108.8 57.98 110.78 52.66 113.54 49.82 115.02 49.92 111.65 56.95 107.45 57.85 103.21 63.22 100.93 70.97 97.63 74.27 96.27 76.82 94.93 81 94.75"/><polygon class="cls-4" points="127.11 244.94 127.93 249.89 130.24 249.76 131.47 249.31 129.2 243.11 127.11 244.94"/><polygon class="cls-7" points="55.21 126.83 55.56 121.67 57.95 119.94 61.27 117 63.22 114.32 61.29 115.12 58.91 116.11 55.97 117.83 50.49 120.64 45.89 123.32 42.51 125.36 38.94 128.04 35.94 130.27 32.5 132.88 31.35 134.61 33.52 134.08 37.09 131.93 39.88 130.37 43.72 127.94 45.8 126.72 47.81 126.76 48.51 127.4 49.47 128.42 50.49 129.44 52.08 129.44 52.97 129.31 54.63 128.42 55.21 126.83"/><polygon class="cls-4" points="8.46 145.84 14.64 142.19 19.27 136.13 28.1 127.91 33.45 122.74 34.48 118.46 43.31 114.32 45.45 109.12 47.29 105.82 48.74 102.41 50.45 99.37 53.86 93.18 57.8 89.17 61.09 91.44 63.22 93.18 70.13 85.06 72.29 84.09 75.78 88.09 77.12 89.33 81.33 87.58 87.7 85.11 93.35 82.65 100.23 81.42 103.32 88.2 106.19 88.09 114.85 86.97 130.34 86.66 135.89 86.97 135.89 95.8 147.21 97.55 161.99 100.73 170.65 103.71 170.65 115.39 178.33 116.56 188.09 119.02 184.9 129.5 198.16 133.2 188.68 146.94 184.63 145 193.2 135.99 193.4 134.06 181.33 130.5 184.99 121.54 175.75 119.08 169.72 117.58 166.94 116.64 167 106.24 160.17 104.29 153.79 102.28 147.87 100.52 141.33 99.5 136.09 98.4 131.47 97.46 131.98 89.67 127.31 89.5 118.89 89.22 111.52 89.75 106.11 90.61 100.59 91.14 98.21 85.42 97.78 84.09 90.73 86.3 82.94 89.42 76.02 92.61 75.2 91.94 70.75 87.38 67.3 91.09 63.81 95.7 62.77 96.98 58.91 93.47 57.3 93.16 55.2 96.27 51.74 101.43 50.02 105.99 49.93 111.14 49.82 115.02 46.73 116.76 42.79 119.17 40.85 120.36 39.25 121.52 37.12 123.07 34.72 124.82 32.02 126.79 28.92 129.89 25.38 133.42 22.01 136.8 18.39 140.52 13.93 145.09 13.93 147.49 12.85 144.67 8.46 145.84"/></g><g id="Bronco_Grey" data-name="Bronco Grey"><ellipse class="cls-8" cx="335.02" cy="283.68" rx="2.78" ry="2.58"/><polygon class="cls-8" points="339.06 279.6 340.47 277.88 338.34 273.37 336.05 270.62 332.83 266.76 330.77 264.29 328.6 261.69 326.43 259.09 323.87 256.02 321.65 253.35 319.71 251.03 317.81 248.75 316.57 247.26 314.98 248.19 316.85 251.02 318.1 252.92 319.66 255.29 321.37 257.87 322.91 260.21 323.23 260.69 324.68 262.46 325.92 263.96 328.35 266.91 333.28 272.91 337.06 277.75 339.06 279.6"/><ellipse class="cls-8" cx="25.54" cy="147.37" rx="2.42" ry="2.85"/><polygon class="cls-8" points="152.9 253.05 153.42 247.99 152.63 248.66 148.59 247.47 147.07 246.54 146.48 249.51 148.04 251.7 150.78 253.68 152.9 253.05"/><path class="cls-8" d="M131.56,249.22l2.49-1-.23-4.1-2.66-2.79-1.36-2.52L127.23,234,124,228.86l-2.77-4.3-1.74-3.34-2.36-4.56-2.93-4.48-1.76-2.7-4,.59,1.59,2.26,2.68,3.82,1.54,2.2,2.09,3L118,224l2.73,4.23,2.42,3.75,1.71,2.29,2.29,3.07,2.18,4.68-.75,1.75L130,248.4a1.12,1.12,0,0,0,1.31.89A.88.88,0,0,0,131.56,249.22Z"/><path class="cls-8" d="M306,234.39a10.47,10.47,0,0,0-2.94,7.46l-5-.71-1.35-.19-3.37-.79-4.06-1-3.05-.75-3.21-.83-2.9-.76-3.11-.79-1.33-.34L275,229.8l-4.08-3-6.81-2.53-5.92-2.55-5-5.88-4.06-8.65-5.47-8.45-.29-2.24,3.77,4.42,1.74,2,2.62,3.07,1.86,2.55,2.23,3,1.7,2.33,1.31,1.79,4.08,2,4,2,3.15,1.57,2.76,1.38,3.69,1.78,3.32,1.61,3.19,1.54,4.34,2.1,1.74,1.3,1.12,1.75.17,1.6.2,1.16,3.27,1,2.41.87,3.37,1.35,1.82-.48,2.6-4.62Z"/><polygon class="cls-8" points="153.46 190.76 152.04 183.21 153.54 184.03 156.15 188.44 155.96 179.97 153.65 172.65 150.16 172.12 145.47 173.97 147.83 171.26 147.83 169.56 146.14 168.39 143 163.3 138.18 157.04 135.91 159.42 131.12 163.02 125.69 166.43 120.74 168.59 115.14 171.63 120.67 171.63 126.35 176.64 139.87 176.27 144.57 181.57 153.46 190.76"/><polygon class="cls-8" points="177.69 228.29 175.96 228.86 169.63 228 164.57 225.74 160.29 221.08 155.09 218.86 157.79 217.42 158.94 212.89 159.52 211.02 161.16 210.49 161.94 210.39 162.05 211.3 162.49 213.07 163.01 214.37 163.08 214.51 165.23 219.96 167.77 222.75 170.53 225.78 174.5 227.17 177.69 228.29"/><polygon class="cls-8" points="230.13 217.37 227.97 217.86 223.4 216.29 217.24 216.4 217.24 214.22 225.58 208.25 224.58 206.91 204.15 209.82 198.76 208.4 193.41 201.82 202.36 193.74 223.25 195.47 235.19 195.47 231.32 202.54 230.13 217.37"/><polygon class="cls-8" points="186.05 195.33 187.06 195.75 189.84 197.88 187.42 192.56 185.4 188.13 182.55 181.91 180.14 176.63 179.16 174.48 176.83 172.4 177.33 179.1 178.39 185.17 178.68 190.94 176.75 192.56 177.14 194.6 185.32 197.01 185.82 196.35 186.05 195.33"/><polygon class="cls-8" points="162.47 159.15 164.97 155.58 167.08 152.45 169.05 148.81 169.77 146.73 167.81 149.13 166.28 147.6 162.47 144.64 156.8 140.3 151.68 136.49 150.48 138.23 149.18 142.91 147.21 143.9 150.7 147.17 157.57 152.94 162.47 159.15"/><polygon class="cls-8" points="129.83 160.43 129.83 159.26 135.18 153.12 134.52 151.04 128.78 145.56 125.18 149.41 120.09 153.76 115.81 157.42 111.66 160.97 113 167.5 115.34 166.98 121.76 164.64 129.83 160.43"/><polygon class="cls-8" points="109.83 157.85 114.66 154.52 118.48 151.93 123.04 147.91 122.97 146.81 124.87 142.69 123.04 141.12 121.62 140.44 120.51 140.6 115.64 137.99 113.36 142.49 108.24 148.18 104.83 152.39 106.88 155.12 109.83 157.85"/><polygon class="cls-8" points="102.64 149.23 103.85 148.37 107.39 144.64 110.7 140.3 109.29 139.1 110.81 135.12 104.83 133.66 102.73 133.31 101.22 135.9 99.93 137.99 98.59 140.17 97.08 143.88 99.97 147.33 102.64 149.23"/><polygon class="cls-8" points="93.97 142.64 96.64 136.7 96.41 134.6 97.08 130.49 88.47 132.42 87.7 138.3 93.97 142.64"/><path class="cls-8" d="M85.31,122.43,85,131.49l-4.1,9.06-3.72,2.86-11.92,1.78-7-1.47-4.72-6.42-1.7,4.57L39,145.74l-1-2,9.28-5.49,5.56-2.51.76-2.29,2,1.69,3,1.37L61,137.7H63l4.06-.65,4.22-1.31,6.39-1.41a3,3,0,0,0,1.68-1l3.28-4a2.75,2.75,0,0,0,.48-.85Z"/><polygon class="cls-8" points="48.69 135.12 47.28 138.23 44.42 135.12 41.13 138.32 39.16 140.25 36.71 142.63 35.83 143.49 33.56 146.24 30.27 150.22 29.95 146.29 33.44 142.59 36.86 139.93 38.67 138.53 41.42 136.41 43.71 134.65 46.3 132.67 47.93 130.82 49.78 131.04 51.09 132.56 48.69 135.12"/><polygon class="cls-8" points="18.64 165.54 23.12 165.54 27.01 163.12 31.8 160.63 33.5 158.93 32.3 157.43 30.41 157.43 26.07 158.63 23.12 160.51 20.24 160.93 18.64 162.87 18.64 165.54"/><polygon class="cls-8" points="70.33 111.25 66.71 111.85 64.82 109.59 64.37 106.98 64.78 105.36 67.54 103.81 73.8 101.21 77.76 99.06 80.25 97.4 81.29 96.27 82.31 97.35 80.92 99.47 80.39 101.17 80.67 102.24 81.57 103.31 84.33 104.53 88.55 104.29 94.03 104.34 86.84 105.42 83.24 105.53 79.27 107.32 75.57 109.63 70.33 111.25"/><polygon class="cls-8" points="105.25 110.55 109.64 111.43 113.32 112.62 117.68 113.6 119.86 114.8 118.11 122.32 106.19 120.08 104.45 115.39 105.25 110.55"/><polygon class="cls-8" points="133.46 131.43 135.18 122.32 122.66 115.88 121.37 117.76 121.37 124.59 133.46 131.43"/><polygon class="cls-8" points="136.25 133.77 147.21 141.66 148.83 132.78 136.6 124.76 136.25 133.77"/><polygon class="cls-8" points="102.07 116.43 102.07 109.46 82.04 109.1 86.7 116.43 102.07 116.43"/><polygon class="cls-8" points="109.88 202.38 110.04 195.78 111.29 194.25 112.17 192.39 108.65 193.65 105.64 195.47 104.25 196.65 103.38 198.99 103.38 202.12 103.76 202.67 108.49 202.67 109.88 202.38"/></g><g id="black_again" data-name="black again"><rect class="cls-4" x="277.03" y="229.6" width="1.31" height="3.96"/><rect class="cls-4" x="279.25" y="230.51" width="1.43" height="3.96"/><rect class="cls-4" x="283.5" y="231.35" width="1.51" height="3.6"/><rect class="cls-4" x="286.01" y="232.14" width="1.43" height="3.64"/><rect class="cls-4" x="288.02" y="232.68" width="1.21" height="3.78"/><rect class="cls-4" x="281.11" y="230.88" width="1.39" height="3.6"/><rect class="cls-4" x="66.26" y="105.53" width="2.45" height="4.72"/><rect class="cls-4" x="70.19" y="103.62" width="2.13" height="5.89"/><rect class="cls-4" x="73.71" y="103.11" width="2.3" height="5.38"/></g><g id="Brophy_Red" data-name="Brophy Red"><polyline class="cls-9" points="279.4 187.18 276.1 183.16 290.76 182.59 299.65 184.08 308.53 186.53 315.49 190.43 322.77 195.71 334.02 204.44 343.05 210.72 363.6 218.95 357.46 224.53 346.41 219.48 337.19 214.07 337.54 215 340.35 218.2 346.36 222.37 351.68 225.82 362.49 229.46 358.4 232.49 351.8 236.79 348.48 235.49 341.08 230.72 335.38 225.85 331.04 223.25 333.07 225.78 339.05 231.94 344.03 235.46 347.67 237.81 351.03 240.12 356.14 241.87 356.69 242.09 349.39 246.71 344.7 245.04 338.49 241.61 333.67 238.79 327.96 234.13 323.39 229.46 319.05 221.77 314.01 215.49 310.83 210.29 307.64 205.97 303.03 201.15 297.01 196.65 288.9 193.67 282.33 192.56 279.4 187.18"/><path class="cls-9" d="M158.87,253.68l-.9-4.12-1.67-4-1.94-3.2-.44-.88a1,1,0,0,1,.47-1.33h0l3-1.28a2,2,0,0,1,2.28.51l3.51,4,2.16,2.84,1.71,3.56,1.35,4.42-1,.58L166.2,251l-1.8-3-2-3.29-3.06-3.28-.59.49,2.22,3.61,1.56,3.71.54,3.95-.81,1.13-.76-4.27-1-2.49-2-3.29-2-2.6-.65.26,1.49,2.66,1.26,2.43,1,3,.22,3.57-.31,1.1Z"/><circle class="cls-9" cx="51.78" cy="124.82" r="2.08"/><polygon class="cls-9" points="51.63 110.63 52.15 106.66 54.07 101.3 57.26 95.94 58.91 93.47 62.77 96.98 60.34 102.15 57.85 103.21 56.95 107.45 51.63 110.63"/><polygon class="cls-9" points="63.88 100.65 65.75 96.65 70.61 90.23 72.32 88.98 75.2 91.94 76.02 92.61 72.87 96.85 63.88 100.65"/><polygon class="cls-9" points="76.82 94.93 80.55 92.2 90.18 88.27 97.31 85.78 98.21 85.42 100.59 91.14 94.03 93.36 88.96 95.96 83.81 98.21 84.02 96.27 83.1 95.12 81 94.75 76.82 94.93"/><polygon class="cls-10" points="85.24 101.54 88.97 98.52 100.59 93.1 107.57 92.06 114.75 90.98 124.53 90.98 131.88 91.2 131.47 97.46 118.99 97.97 112.16 99.24 105.82 101.18 104.52 100.72 89.15 100.8 85.24 101.54"/><polygon class="cls-10" points="110.16 102.7 118.13 100.68 130.09 100.68 136.91 100.68 145.5 102.7 151.83 103.71 160.21 105.61 166.99 107.93 166.94 116.64 157.32 114.45 150.85 112.72 144.8 111.38 137.55 109.76 130.09 109.34 127.59 109.75 118.27 105.54 110.16 102.7"/><polygon class="cls-10" points="135.07 113.12 141.25 113.12 151.92 115.39 160.96 117.7 174.23 120.64 184.39 123.01 181.33 130.5 169.77 127.53 160.96 125.38 150.68 122.9 148.42 122.44 135.07 113.12"/><polygon class="cls-10" points="153.68 126.29 161.4 127.53 170.65 129.91 180.1 132.73 189.84 135.75 192.32 136.92 184.63 145 176.24 141 167.9 135.65 163.68 132.94 153.68 126.29"/><polygon class="cls-9" points="259.25 201.56 260.09 198.69 257.03 189.89 254.71 184.79 249.99 179.56 262.5 179.56 267.69 184.7 269.63 188.41 268.89 190.56 270.28 191.09 272.13 192.77 272.6 194.15 273.43 196.65 273.06 199.26 272.04 201.01 269.91 202.21 261.71 202.58 258.79 202.58 259.25 201.56"/></g><g id="Layer_10" data-name="Layer 10"><polygon class="cls-3" points="263.78 193.04 265.8 198.03 268.24 197.73 268.83 196.65 266.59 192.26 264.41 192.26 263.78 193.04"/><polygon class="cls-3" points="262.43 188.85 259.25 184.36 262.43 183.79 264.75 187.31 264.75 188.29 262.43 188.85"/></g></svg>